<svg width="1977" height="937" xmlns="http://www.w3.org/2000/svg" xmlns:xlink="http://www.w3.org/1999/xlink" xml:space="preserve" overflow="hidden"><g transform="translate(-663 -875)"><path d="M2218 1062 2008 1062 2113 877 2218 1062" fill="#FFF8B6" fill-rule="evenodd"/><path d="M2218.5 1062.5 2008.5 1062.5 2113.5 877.5 2218.5 1062.5Z" stroke="#FFFFFF" stroke-width="5.15607" stroke-linejoin="round" stroke-miterlimit="10" fill="none" fill-rule="evenodd"/><path d="M2323 1248 1903 1248 2008 1062 2218 1062 2323 1248" fill="#D1F4FF" fill-rule="evenodd"/><path d="M2323.5 1248.5 1903.5 1248.5 2008.5 1062.5 2218.5 1062.5 2323.5 1248.5Z" stroke="#FFFFFF" stroke-width="5.15607" stroke-linejoin="round" stroke-miterlimit="10" fill="none" fill-rule="evenodd"/><path d="M2428 1433 1799 1433 1903.83 1248 2323.17 1248 2428 1433" fill="#E9FFB9" fill-rule="evenodd"/><path d="M2428.5 1433.5 1799.5 1433.5 1904.33 1248.5 2323.67 1248.5 2428.5 1433.5Z" stroke="#FFFFFF" stroke-width="5.15607" stroke-linejoin="round" stroke-miterlimit="10" fill="none" fill-rule="evenodd"/><path d="M2533 1619 1694 1619 1798.87 1433 2428.12 1433 2533 1619" fill="#C8FFE5" fill-rule="evenodd"/><path d="M2533.5 1619.5 1694.5 1619.5 1799.37 1433.5 2428.62 1433.5 2533.5 1619.5Z" stroke="#FFFFFF" stroke-width="5.15607" stroke-linejoin="round" stroke-miterlimit="10" fill="none" fill-rule="evenodd"/><path d="M2637 1805 1589 1805 1693.8 1619 2532.2 1619 2637 1805" fill="#DCE9FF" fill-rule="evenodd"/><path d="M2637.5 1805.5 1589.5 1805.5 1694.3 1619.5 2532.7 1619.5 2637.5 1805.5Z" stroke="#FFFFFF" stroke-width="5.15607" stroke-linejoin="round" stroke-miterlimit="10" fill="none" fill-rule="evenodd"/><path d="M1474.5 1702.5 1587.5 1702.5" stroke="#484848" stroke-width="5.15607" stroke-linejoin="round" stroke-miterlimit="10" fill="none" fill-rule="evenodd"/><path d="M1567.5 1724.5 1589.5 1702 1567.5 1679.5" stroke="#484848" stroke-width="5.15607" stroke-linejoin="round" stroke-miterlimit="10" fill="none" fill-rule="evenodd"/><path d="M1474.5 1516.5 1694.5 1516.5" stroke="#484848" stroke-width="5.15607" stroke-linejoin="round" stroke-miterlimit="10" fill="none" fill-rule="evenodd"/><path d="M1673.5 1538.5 1695.5 1516.5 1673.5 1494.5" stroke="#484848" stroke-width="5.15607" stroke-linejoin="round" stroke-miterlimit="10" fill="none" fill-rule="evenodd"/><path d="M1474.5 1330.5 1800.5 1330.5" stroke="#484848" stroke-width="5.15607" stroke-linejoin="round" stroke-miterlimit="10" fill="none" fill-rule="evenodd"/><path d="M1780.5 1353.5 1802.5 1331 1780.5 1308.5" stroke="#484848" stroke-width="5.15607" stroke-linejoin="round" stroke-miterlimit="10" fill="none" fill-rule="evenodd"/><path d="M1474.5 1145.5 1907.5 1145.5" stroke="#484848" stroke-width="5.15607" stroke-linejoin="round" stroke-miterlimit="10" fill="none" fill-rule="evenodd"/><path d="M1886.5 1167.5 1909.5 1145 1886.5 1122.5" stroke="#484848" stroke-width="5.15607" stroke-linejoin="round" stroke-miterlimit="10" fill="none" fill-rule="evenodd"/><path d="M1474.5 959.5 2013.5 959.5" stroke="#484848" stroke-width="5.15607" stroke-linejoin="round" stroke-miterlimit="10" fill="none" fill-rule="evenodd"/><path d="M1993.5 981.5 2015.5 959.5 1993.5 937.5" stroke="#484848" stroke-width="5.15607" stroke-linejoin="round" stroke-miterlimit="10" fill="none" fill-rule="evenodd"/><text fill="#484848" font-family="Calibri,Calibri_MSFontService,sans-serif" font-weight="400" font-size="32" transform="matrix(1 0 0 1 798.984 1003)">Hiérarchisation des niveaux de détail</text><text fill="#484848" font-family="Calibri,Calibri_MSFontService,sans-serif" font-weight="400" font-size="32" transform="matrix(1 0 0 1 939.348 1042)">et réduction de polygones</text><text fill="#1EABDA" font-family="Calibri,Calibri_MSFontService,sans-serif" font-weight="700" font-size="37" transform="matrix(1 0 0 1 982.283 1110)">Moteur Temps Réel</text><text fill="#484848" font-family="Calibri,Calibri_MSFontService,sans-serif" font-weight="400" font-size="32" transform="matrix(1 0 0 1 932.473 1188)">Rendu 3D en temps réel et</text><text fill="#484848" font-family="Calibri,Calibri_MSFontService,sans-serif" font-weight="400" font-size="32" transform="matrix(1 0 0 1 1124.4 1227)">interactions</text><text fill="#92BD39" font-family="Calibri,Calibri_MSFontService,sans-serif" font-weight="700" font-size="37" transform="matrix(1 0 0 1 1043.3 1296)">Automatisation</text><text fill="#E0CB15" font-family="Calibri,Calibri_MSFontService,sans-serif" font-weight="700" font-size="37" transform="matrix(1 0 0 1 1082.29 925)">Optimisation</text><text fill="#484848" font-family="Calibri,Calibri_MSFontService,sans-serif" font-weight="400" font-size="32" transform="matrix(1 0 0 1 972.497 1374)">Scripts personnalisés et</text><text fill="#484848" font-family="Calibri,Calibri_MSFontService,sans-serif" font-weight="400" font-size="32" transform="matrix(1 0 0 1 908.331 1413)">programmation procédurale</text><text fill="#3CC583" font-family="Calibri,Calibri_MSFontService,sans-serif" font-weight="700" font-size="37" transform="matrix(1 0 0 1 1079.13 1482)">Modélisation</text><text fill="#484848" font-family="Calibri,Calibri_MSFontService,sans-serif" font-weight="400" font-size="32" transform="matrix(1 0 0 1 802.043 1560)">Création et modification de modèles</text><text fill="#484848" font-family="Calibri,Calibri_MSFontService,sans-serif" font-weight="400" font-size="32" transform="matrix(1 0 0 1 1121.73 1599)">3D existants</text><text fill="#4E88E7" font-family="Calibri,Calibri_MSFontService,sans-serif" font-weight="700" font-size="37" transform="matrix(1 0 0 1 1111.1 1667)">Capture 3D</text><text fill="#484848" font-family="Calibri,Calibri_MSFontService,sans-serif" font-weight="400" font-size="32" transform="matrix(1 0 0 1 904.091 1745)">Capture de photos, vidéos et</text><text fill="#484848" font-family="Calibri,Calibri_MSFontService,sans-serif" font-weight="400" font-size="32" transform="matrix(1 0 0 1 983.154 1784)">technologies associées</text><path d="M1381.29 1151.47C1377.75 1151.47 1374.89 1148.57 1374.89 1145 1374.89 1141.43 1377.75 1138.53 1381.29 1138.53 1384.82 1138.53 1387.69 1141.43 1387.69 1145 1387.69 1148.57 1384.82 1151.47 1381.29 1151.47ZM1367.63 1166.56C1360.81 1161.81 1356.11 1154.05 1356.11 1145 1356.11 1130.77 1367.63 1119.13 1381.71 1119.13 1388.97 1119.13 1395.37 1122.15 1399.63 1126.89L1385.98 1140.26M1406.46 1150.17C1406.89 1148.45 1406.89 1146.72 1406.89 1145M1381.29 1170.87C1388.97 1170.87 1395.37 1167.85 1400.06 1162.67M1417.77 1173.02C1417.77 1177.76 1413.93 1181.64 1409.23 1181.64L1353.77 1181.64C1349.07 1181.64 1345.23 1177.76 1345.23 1173.02L1345.23 1116.98C1345.23 1112.24 1349.07 1108.36 1353.77 1108.36L1409.23 1108.36C1413.93 1108.36 1417.77 1112.24 1417.77 1116.98ZM1333.5 1115.9 1345.23 1115.9M1333.5 1135.3 1345.23 1135.3M1333.5 1154.7 1345.23 1154.7M1417.77 1135.3 1429.5 1135.3M1417.77 1154.7 1429.5 1154.7M1333.5 1174.1 1345.23 1174.1M1429.5 1115.9 1417.77 1115.9M1429.5 1174.1 1417.77 1174.1M1410.09 1193.5 1410.09 1181.64M1391.03 1193.5 1391.03 1181.64M1371.97 1193.5 1371.97 1181.64M1391.03 1108.36 1391.03 1096.5M1371.97 1108.36 1371.97 1096.5M1352.91 1193.5 1352.91 1181.64M1410.09 1096.5 1410.09 1108.36M1352.91 1096.5 1352.91 1108.36" stroke="#484848" stroke-width="5.15607" stroke-linejoin="round" stroke-miterlimit="10" fill="none" fill-rule="evenodd"/><path d="M1429.5 998.984C1429.5 1003.67 1425.63 1007.5 1420.9 1007.5L1341.33 1007.5C1336.6 1007.5 1332.73 1003.67 1332.73 998.984L1332.73 920.21C1332.73 915.526 1336.6 911.693 1341.33 911.693L1420.9 911.693C1425.63 911.693 1429.5 915.526 1429.5 920.21ZM1349.01 953.349C1354.76 941.578 1367.22 933.572 1381.11 933.572 1395.01 933.572 1407.47 941.578 1413.22 953.349M1381.11 941.107 1381.11 933.572M1388.04 979.248C1391.84 973.598 1391.84 956.646 1391.84 956.646 1391.84 956.646 1375.67 963.239 1371.87 968.89 1369.01 973.127 1370.44 979.249 1374.72 982.074 1379 984.899 1385.18 983.487 1388.04 979.248ZM1407.04 957.587 1413.22 953.349M1349.01 953.349 1355.19 957.587" stroke="#484848" stroke-width="5.15607" stroke-linejoin="round" stroke-miterlimit="10" fill="none" fill-rule="evenodd"/><path d="M1383.79 1375.89C1383.78 1378.44 1381.74 1380.5 1379.21 1380.5L1338.07 1380.5C1335.55 1380.5 1333.5 1378.44 1333.5 1375.89L1333.5 1364.36C1333.5 1350.35 1344.76 1338.99 1358.64 1338.99 1372.53 1338.99 1383.79 1350.35 1383.79 1364.36ZM1349.04 1354.67C1349.04 1355.27 1349.52 1355.75 1350.11 1355.75 1350.7 1355.75 1351.18 1355.27 1351.18 1354.67 1351.18 1354.08 1350.7 1353.6 1350.11 1353.6 1349.52 1353.6 1349.04 1354.08 1349.04 1354.67M1366.11 1354.65C1366.11 1355.24 1366.59 1355.72 1367.18 1355.72 1367.77 1355.72 1368.24 1355.24 1368.24 1354.65 1368.24 1354.05 1367.77 1353.57 1367.18 1353.57 1366.59 1353.57 1366.11 1354.05 1366.11 1354.65M1358.64 1338.99 1358.64 1329.77M1351.79 1322.85C1351.79 1326.67 1354.86 1329.77 1358.64 1329.77 1362.43 1329.77 1365.5 1326.67 1365.5 1322.85 1365.5 1319.03 1362.43 1315.93 1358.64 1315.93 1354.86 1315.93 1351.79 1319.03 1351.79 1322.85M1333.5 1368.94 1383.79 1368.94M1412.43 1283.65 1429.5 1300.87 1412.43 1318.09M1378.3 1283.65 1361.23 1300.87 1378.3 1318.09M1399.63 1281.5 1391.1 1320.24" stroke="#484848" stroke-width="5.15607" stroke-linejoin="round" stroke-miterlimit="10" fill="none" fill-rule="evenodd"/><path d="M1336.76 1497.61 1362.33 1507.23 1387.89 1497.61 1387.89 1514.18M1347.11 1488.21 1332.5 1473.55 1338.52 1467.5 1353.13 1482.16 1357.65 1492.75 1347.11 1488.21ZM1365.14 1489.84 1387.89 1497.61M1370.85 1532.89 1362.33 1536.1 1336.76 1526.48 1336.76 1497.61 1343.15 1495.62M1362.33 1507.06 1362.33 1535.93M1430.5 1556.95C1430.5 1561.67 1426.68 1565.5 1421.98 1565.5L1411.33 1565.5C1409.98 1565.5 1408.72 1564.87 1407.92 1563.79L1404.08 1558.66C1403.28 1557.58 1402.01 1556.95 1400.67 1556.95 1399.33 1556.95 1398.07 1557.58 1397.27 1558.66L1393.43 1563.79C1392.63 1564.87 1391.36 1565.5 1390.02 1565.5L1379.37 1565.5C1374.66 1565.5 1370.85 1561.67 1370.85 1556.95L1370.85 1544.12C1370.85 1539.39 1374.66 1535.56 1379.37 1535.56L1421.98 1535.56C1426.68 1535.56 1430.5 1539.39 1430.5 1544.12ZM1379.37 1550.53C1379.37 1554.07 1382.23 1556.95 1385.76 1556.95 1389.29 1556.95 1392.15 1554.07 1392.15 1550.53 1392.15 1546.99 1389.29 1544.12 1385.76 1544.12 1382.23 1544.12 1379.37 1546.99 1379.37 1550.53M1409.2 1550.53C1409.2 1554.07 1412.06 1556.95 1415.59 1556.95 1419.12 1556.95 1421.98 1554.07 1421.98 1550.53 1421.98 1546.99 1419.12 1544.12 1415.59 1544.12 1412.06 1544.12 1409.2 1546.99 1409.2 1550.53M1430.5 1544.12 1430.5 1523.74C1430.5 1521.29 1428.82 1519.16 1426.44 1518.59 1424.06 1518.03 1421.61 1519.19 1420.52 1521.38 1418.8 1524.83 1415.29 1527.01 1411.45 1527.01L1389.9 1527.01C1386.06 1527.01 1382.54 1524.83 1380.83 1521.38 1379.74 1519.19 1377.28 1518.03 1374.91 1518.59 1372.53 1519.16 1370.85 1521.29 1370.85 1523.74L1370.85 1544.12" stroke="#484848" stroke-width="5.15607" stroke-linejoin="round" stroke-miterlimit="10" fill="none" fill-rule="evenodd"/><path d="M1334.5 1699.18 1334.5 1662.67C1334.5 1660.77 1335.26 1658.94 1336.62 1657.6 1337.97 1656.26 1339.81 1655.5 1341.73 1655.5L1395.96 1655.5C1397.88 1655.5 1399.72 1656.26 1401.07 1657.6 1402.43 1658.94 1403.19 1660.77 1403.19 1662.67L1403.19 1673.43 1423.58 1664.46C1424.13 1664.25 1424.72 1664.18 1425.31 1664.25 1425.89 1664.32 1426.45 1664.53 1426.94 1664.86 1427.42 1665.19 1427.82 1665.64 1428.09 1666.15 1428.36 1666.67 1428.5 1667.25 1428.5 1667.83L1428.5 1707.7C1428.5 1708.28 1428.36 1708.86 1428.09 1709.38 1427.82 1709.9 1427.42 1710.34 1426.94 1710.67 1426.45 1711.01 1425.89 1711.22 1425.31 1711.28 1424.72 1711.35 1424.13 1711.28 1423.58 1711.07L1403.19 1702.11 1403.19 1712.86C1403.19 1714.76 1402.43 1716.59 1401.07 1717.93 1399.72 1719.28 1397.88 1720.03 1395.96 1720.03M1334.5 1742.67C1335.71 1746.06 1339.48 1748.5 1343.32 1748.5 1348.2 1748.5 1352.15 1744.58 1352.15 1739.75L1352.15 1738.29C1352.15 1733.46 1348.2 1729.54 1343.32 1729.54L1343.03 1729.54C1347.25 1729.54 1350.68 1726.14 1350.68 1721.96L1350.68 1720.79C1350.68 1716.76 1347.39 1713.5 1343.32 1713.5 1340.92 1713.5 1338.78 1714.64 1337.44 1716.41M1363.85 1713.5 1363.85 1748.5 1368.84 1748.5C1375.83 1748.5 1381.5 1742.88 1381.5 1735.95L1381.5 1726.04C1381.5 1719.11 1375.83 1713.5 1368.84 1713.5L1363.85 1713.5Z" stroke="#484848" stroke-width="5.15607" stroke-linejoin="round" stroke-miterlimit="10" fill="none" fill-rule="evenodd"/></g></svg>