<svg width="2034" height="1435" xmlns="http://www.w3.org/2000/svg" xmlns:xlink="http://www.w3.org/1999/xlink" xml:space="preserve" overflow="hidden"><g transform="translate(-674 -690)"><path d="M881 1185 1191.5 1185C1198.96 1185 1205 1191.04 1205 1198.5L1205 1495.5C1205 1502.96 1198.96 1509 1191.5 1509L881 1509 881 1185" fill="#FFF8B6" fill-rule="evenodd"/><path d="M679.115 1356.09C675 1351.11 675 1343.89 679.115 1338.9L872.086 1104.87C876.103 1100 884 1102.85 884 1109.17L884 1585.83C884 1592.15 876.103 1595 872.086 1590.13L679.115 1356.09" fill="#FFF8B6" fill-rule="evenodd"/><path d="M881.5 1185.5 1192 1185.5C1199.46 1185.5 1205.5 1191.54 1205.5 1199L1205.5 1496C1205.5 1503.46 1199.46 1509.5 1192 1509.5L881.5 1509.5 881.5 1185.5Z" stroke="#FFFFFF" stroke-width="5.05863" stroke-linejoin="round" stroke-miterlimit="10" fill="none" fill-rule="evenodd"/><path d="M884.5 1186.08 884.5 1109.67C884.5 1103.35 876.603 1100.5 872.584 1105.37L679.614 1339.4C675.5 1344.39 675.5 1351.61 679.614 1356.6L872.584 1590.63C876.603 1595.5 884.5 1592.65 884.5 1586.33L884.5 1509.92" stroke="#FFFFFF" stroke-width="5.05863" stroke-linejoin="round" stroke-miterlimit="10" fill="none" fill-rule="evenodd"/><path d="M1205 1198.5C1205 1191.04 1211.04 1185 1218.5 1185L1515.5 1185C1522.96 1185 1529 1191.04 1529 1198.5L1529 1495.5C1529 1502.96 1522.96 1509 1515.5 1509L1218.5 1509C1211.04 1509 1205 1502.96 1205 1495.5L1205 1198.5" fill="#FFE4CB" fill-rule="evenodd"/><path d="M1205.5 1199C1205.5 1191.54 1211.54 1185.5 1219 1185.5L1516 1185.5C1523.46 1185.5 1529.5 1191.54 1529.5 1199L1529.5 1496C1529.5 1503.46 1523.46 1509.5 1516 1509.5L1219 1509.5C1211.54 1509.5 1205.5 1503.46 1205.5 1496L1205.5 1199Z" stroke="#FFFFFF" stroke-width="5.05863" stroke-linejoin="round" stroke-miterlimit="10" fill="none" fill-rule="evenodd"/><path d="M1529 1198.5C1529 1191.04 1535.03 1185 1542.46 1185L1838.54 1185C1845.97 1185 1852 1191.04 1852 1198.5L1852 1495.5C1852 1502.96 1845.97 1509 1838.54 1509L1542.46 1509C1535.03 1509 1529 1502.96 1529 1495.5L1529 1198.5" fill="#FFD9D8" fill-rule="evenodd"/><path d="M1529.5 1199C1529.5 1191.54 1535.53 1185.5 1542.96 1185.5L1839.04 1185.5C1846.47 1185.5 1852.5 1191.54 1852.5 1199L1852.5 1496C1852.5 1503.46 1846.47 1509.5 1839.04 1509.5L1542.96 1509.5C1535.53 1509.5 1529.5 1503.46 1529.5 1496L1529.5 1199Z" stroke="#FFFFFF" stroke-width="5.05863" stroke-linejoin="round" stroke-miterlimit="10" fill="none" fill-rule="evenodd"/><path d="M1852 1198.5C1852 1191.04 1858.04 1185 1865.5 1185L2162.5 1185C2169.96 1185 2176 1191.04 2176 1198.5L2176 1495.5C2176 1502.96 2169.96 1509 2162.5 1509L1865.5 1509C1858.04 1509 1852 1502.96 1852 1495.5L1852 1198.5" fill="#DCE9FF" fill-rule="evenodd"/><path d="M1852.5 1199C1852.5 1191.54 1858.54 1185.5 1866 1185.5L2163 1185.5C2170.46 1185.5 2176.5 1191.54 2176.5 1199L2176.5 1496C2176.5 1503.46 2170.46 1509.5 2163 1509.5L1866 1509.5C1858.54 1509.5 1852.5 1503.46 1852.5 1496L1852.5 1199Z" stroke="#FFFFFF" stroke-width="5.05863" stroke-linejoin="round" stroke-miterlimit="10" fill="none" fill-rule="evenodd"/><path d="M2176 1198.5C2176 1191.04 2182.04 1185 2189.5 1185L2500 1185 2500 1509 2189.5 1509C2182.04 1509 2176 1502.96 2176 1495.5L2176 1198.5" fill="#C8FFE5" fill-rule="evenodd"/><path d="M2701.89 1354.09C2706 1349.11 2706 1341.89 2701.89 1336.9L2508.91 1102.87C2504.9 1098 2497 1100.85 2497 1107.17L2497 1583.83C2497 1590.15 2504.9 1593 2508.91 1588.13L2701.89 1354.09" fill="#C8FFE5" fill-rule="evenodd"/><path d="M2176.5 1199C2176.5 1191.54 2182.54 1185.5 2190 1185.5L2500.5 1185.5 2500.5 1509.5 2190 1509.5C2182.54 1509.5 2176.5 1503.46 2176.5 1496L2176.5 1199Z" stroke="#FFFFFF" stroke-width="5.05863" stroke-linejoin="round" stroke-miterlimit="10" fill="none" fill-rule="evenodd"/><path d="M2497.5 1185.24 2497.5 1107.67C2497.5 1101.35 2505.4 1098.5 2509.42 1103.37L2702.39 1337.4C2706.5 1342.39 2706.5 1349.61 2702.39 1354.6L2509.42 1588.63C2505.4 1593.5 2497.5 1590.65 2497.5 1584.33L2497.5 1509.08" stroke="#FFFFFF" stroke-width="5.05863" stroke-linejoin="round" stroke-miterlimit="10" fill="none" fill-rule="evenodd"/><path d="M2317.57 1288.13C2318.22 1284.15 2320.28 1280.56 2323.38 1278L2277.25 1278C2266.07 1278 2257 1287.1 2257 1298.32L2257 1379.59C2257 1390.81 2266.07 1399.91 2277.25 1399.91L2319.44 1399.91 2316.06 1413.45 2300.87 1413.45C2297.15 1413.45 2294.12 1416.49 2294.12 1420.23 2294.12 1423.97 2297.15 1427 2300.87 1427L2375.12 1427C2378.85 1427 2381.88 1423.97 2381.88 1420.23 2381.88 1416.49 2378.85 1413.45 2375.12 1413.45L2359.94 1413.45 2356.56 1399.91 2398.75 1399.91C2409.93 1399.91 2419 1390.81 2419 1379.59L2419 1298.32C2419 1287.1 2409.93 1278 2398.75 1278L2351.95 1278C2355.04 1280.56 2357.11 1284.16 2357.75 1288.13 2360.07 1289.1 2362.31 1290.24 2364.43 1291.54L2398.75 1291.54C2402.48 1291.54 2405.5 1294.57 2405.5 1298.31L2405.5 1379.58C2405.5 1383.33 2402.48 1386.36 2398.75 1386.36L2277.25 1386.36C2273.52 1386.36 2270.5 1383.33 2270.5 1379.58L2270.5 1298.31C2270.5 1294.57 2273.52 1291.54 2277.25 1291.54L2310.89 1291.54C2313.01 1290.24 2315.25 1289.1 2317.57 1288.13M2347.88 1330.3 2327.44 1330.3 2327.44 1291.24C2327.44 1287.14 2330.16 1284.4 2334.25 1284.4L2341.07 1284.4C2345.15 1284.4 2347.88 1287.14 2347.88 1291.24L2347.88 1330.3M2388.2 1354.13C2388.2 1358.23 2385.48 1360.97 2381.39 1360.97L2294.61 1360.97C2290.52 1360.97 2287.79 1358.23 2287.79 1354.13L2287.79 1347.29C2287.79 1343.19 2290.52 1340.45 2294.61 1340.45L2381.39 1340.45C2385.48 1340.45 2388.21 1343.19 2388.21 1347.29L2388.21 1354.13M2358 1299.54C2369.03 1305.77 2376.79 1317.21 2378.48 1330.3L2358 1330.3 2358 1299.54M2317.32 1299.54 2317.32 1330.3 2296.84 1330.3C2298.53 1317.21 2306.29 1305.77 2317.32 1299.54" fill="#3CC583" fill-rule="evenodd"/><path d="M2081.68 1378C2081.02 1376.33 2079.72 1375 2078.08 1374.29 2076.44 1373.58 2074.57 1373.56 2072.91 1374.22 2071.33 1374.85 2070.06 1376.06 2069.33 1377.59 2068.58 1379.32 2068.58 1381.27 2069.33 1382.99L2077.3 1402.84C2077.7 1403.89 2077.57 1405.07 2076.96 1406.01 2076.32 1406.95 2075.26 1407.51 2074.12 1407.5L1955.46 1407.5C1954.32 1407.51 1953.26 1406.95 1952.62 1406.01 1952.12 1405.02 1952.12 1403.84 1952.62 1402.84L1971.51 1355.59C1971.97 1354.46 1973 1353.65 1974.21 1353.5L2004.57 1353.5C2007.16 1353.49 2009.52 1352 2010.64 1349.65 2011.1 1348.75 2011.33 1347.76 2011.32 1346.75 2011.32 1343.02 2008.3 1340 2004.57 1340L1967.46 1340C1964.7 1339.99 1962.21 1341.68 1961.19 1344.25L1934.2 1411.75C1933.38 1413.82 1933.63 1416.17 1934.88 1418.03 1936.14 1419.89 1938.23 1421 1940.48 1421L2088.9 1421C2091.14 1421 2093.24 1419.89 2094.5 1418.03 2095.75 1416.17 2096 1413.82 2095.17 1411.75L2081.68 1378M2038.71 1376.38C2037.46 1375.4 2036.66 1373.97 2036.48 1372.4 2036.27 1370.83 2036.71 1369.25 2037.69 1368.01 2038.66 1366.78 2040.06 1365.98 2041.61 1365.78 2043.15 1365.57 2044.72 1366.01 2045.92 1367 2049.08 1369.29 2050.96 1372.95 2050.98 1376.85 2050.99 1380.14 2048.4 1382.85 2045.12 1382.99 2043.56 1383.03 2042.07 1382.44 2040.95 1381.37 2039.83 1380.29 2039.2 1378.81 2039.18 1377.26L2039.18 1376.38C2039.11 1376.85 2039.11 1376.72 2038.71 1376.38M2004.64 1384.68C2007.92 1384.68 2010.57 1387.34 2010.57 1390.62 2010.57 1393.9 2007.92 1396.56 2004.64 1396.56L1997.89 1396.56C1994.61 1396.56 1991.95 1393.9 1991.95 1390.62 1991.95 1387.34 1994.61 1384.68 1997.89 1384.68L2004.64 1384.68M2018.94 1390.69C2018.85 1389.13 2019.38 1387.6 2020.42 1386.44 2021.46 1385.27 2022.91 1384.57 2024.47 1384.48 2026.76 1384.28 2028.79 1383.8 2030.61 1383.8 2032.15 1383.56 2033.72 1383.92 2035 1384.82 2037.6 1386.77 2038.19 1390.44 2036.34 1393.12 2035.42 1394.38 2034.04 1395.23 2032.5 1395.48 2030.08 1395.86 2027.65 1396.11 2025.21 1396.22 2021.96 1396.42 2019.15 1393.95 2018.94 1390.69M2024.88 1393.73 1900 1232M1977.58 1384.68C1980.86 1384.68 1983.52 1387.34 1983.52 1390.62 1983.52 1393.9 1980.86 1396.56 1977.58 1396.56L1970.84 1396.56C1967.56 1396.56 1964.9 1393.9 1964.9 1390.62 1964.9 1387.34 1967.56 1384.68 1970.84 1384.68L1977.58 1384.68M2014.69 1370.78C2013.17 1370.32 2011.92 1369.24 2011.25 1367.81 2010.54 1366.41 2010.42 1364.78 2010.91 1363.29 2011.97 1360.2 2015.31 1358.55 2018.4 1359.57 2020.26 1360.1 2022.15 1360.5 2024.07 1360.79 2027.25 1361.34 2029.41 1364.34 2028.92 1367.54 2028.69 1369.09 2027.85 1370.49 2026.58 1371.41 2025.31 1372.34 2023.73 1372.72 2022.18 1372.46 2019.64 1372.11 2017.13 1371.54 2014.69 1370.78M2095.65 1279.25C2095.65 1275.52 2092.63 1272.5 2088.9 1272.5L2028.18 1272.5C2024.45 1272.5 2021.44 1275.52 2021.44 1279.25 2021.44 1282.98 2024.45 1286 2028.18 1286L2088.9 1286C2092.63 1286 2095.65 1282.98 2095.65 1279.25M2078.78 1292.75 2034.93 1292.75C2031.2 1292.75 2028.18 1295.77 2028.18 1299.5 2028.18 1303.23 2031.2 1306.25 2034.93 1306.25L2078.78 1306.25C2082.51 1306.25 2085.53 1303.23 2085.53 1299.5 2085.53 1295.77 2082.51 1292.75 2078.78 1292.75M2068.66 1313 2048.42 1313C2044.69 1313 2041.67 1316.02 2041.67 1319.75 2041.67 1323.48 2044.69 1326.5 2048.42 1326.5L2068.66 1326.5C2072.39 1326.5 2075.41 1323.48 2075.41 1319.75 2075.41 1316.02 2072.39 1313 2068.66 1313M2061.91 1340C2061.91 1336.27 2058.89 1333.25 2055.17 1333.25L2041.67 1333.25C2037.95 1333.25 2034.93 1336.27 2034.93 1340 2034.93 1343.73 2037.95 1346.75 2041.67 1346.75L2055.17 1346.75C2058.89 1346.75 2061.91 1343.73 2061.91 1340" fill="#4E88E7" fill-rule="evenodd"/><path d="M1771 1301.28C1771 1297.55 1768 1294.53 1764.29 1294.53L1762.68 1294.53C1762.09 1294.54 1761.53 1294.84 1761.21 1295.34 1760.24 1297.11 1759.02 1298.72 1757.58 1300.13L1743.03 1314.79 1744.17 1314.79C1747.87 1314.79 1750.87 1317.81 1750.87 1321.54L1750.87 1341.81C1750.87 1342.74 1750.12 1343.5 1749.2 1343.5L1720.69 1343.5C1717.91 1343.5 1715.66 1345.77 1715.66 1348.56 1715.66 1351.36 1717.91 1353.63 1720.69 1353.63L1749.2 1353.63C1750.12 1353.63 1750.87 1354.39 1750.87 1355.32L1750.87 1395.85C1750.87 1399.58 1747.87 1402.6 1744.17 1402.6L1734.1 1402.6C1733.18 1402.6 1732.43 1401.84 1732.43 1400.91L1732.43 1372.2C1732.39 1369.42 1730.16 1367.18 1727.4 1367.14L1693.85 1367.14C1691.09 1367.18 1688.86 1369.42 1688.82 1372.2L1688.82 1400.91C1688.82 1401.84 1688.07 1402.6 1687.15 1402.6L1670.38 1402.6C1669.45 1402.6 1668.7 1401.84 1668.7 1400.91L1668.7 1375.58C1668.66 1373.3 1667.72 1371.12 1666.08 1369.53 1664.45 1367.95 1662.25 1367.08 1659.98 1367.14L1631.8 1367.14C1630.88 1367.14 1630.12 1366.38 1630.12 1365.45L1630.12 1355.32C1630.12 1354.39 1630.88 1353.63 1631.8 1353.63L1663.67 1353.63C1666.44 1353.63 1668.7 1351.36 1668.7 1348.56 1668.7 1345.77 1666.44 1343.5 1663.67 1343.5L1631.8 1343.5C1630.88 1343.5 1630.12 1342.74 1630.12 1341.81L1630.12 1335.05C1630.12 1334.12 1630.88 1333.37 1631.8 1333.37L1663.67 1333.37C1666.44 1333.37 1668.7 1331.1 1668.7 1328.3 1668.7 1325.5 1666.44 1323.23 1663.67 1323.23L1631.8 1323.23C1630.88 1323.23 1630.12 1322.48 1630.12 1321.54 1630.12 1317.81 1633.13 1314.79 1636.83 1314.79L1684.86 1314.79C1685.65 1314.77 1686.32 1314.21 1686.47 1313.44L1687.41 1308.78C1687.97 1306.22 1689.25 1303.87 1691.1 1302.02L1695.53 1297.57C1696.01 1297.06 1696.14 1296.32 1695.87 1295.67 1695.6 1295.06 1694.99 1294.66 1694.32 1294.66L1616.71 1294.66C1613 1294.66 1610 1297.68 1610 1301.42L1610 1416.25C1610 1419.98 1613 1423 1616.71 1423L1764.29 1423C1768 1423 1771 1419.98 1771 1416.25L1771 1301.28M1722.36 1377.27 1722.36 1384.03 1698.89 1384.03 1698.89 1377.27 1722.36 1377.27M1698.89 1394.16 1722.36 1394.16 1722.36 1402.6 1698.89 1402.6 1698.89 1394.16M1656.96 1377.27C1657.88 1377.27 1658.64 1378.03 1658.64 1378.96L1658.64 1400.91C1658.64 1401.84 1657.88 1402.6 1656.96 1402.6L1636.83 1402.6C1633.13 1402.6 1630.12 1399.58 1630.12 1395.85L1630.12 1378.96C1630.12 1378.03 1630.88 1377.27 1631.8 1377.27L1656.96 1377.27M1698.21 1309.05C1697.74 1309.5 1697.41 1310.09 1697.28 1310.74L1693.92 1327.62C1693.72 1328.73 1694.07 1329.87 1694.86 1330.66 1695.63 1331.49 1696.78 1331.85 1697.88 1331.61L1714.65 1328.23C1715.29 1328.08 1715.87 1327.75 1716.33 1327.29L1750.47 1292.84C1754.97 1287.7 1754.73 1279.93 1749.92 1275.09 1745.11 1270.24 1737.39 1270 1732.29 1274.53L1698.21 1309.05" fill="#E55753" fill-rule="evenodd"/><path d="M1393.46 1317.28C1392.24 1317.17 1391.09 1316.7 1390.15 1315.93L1381.58 1307.37C1379.44 1305.38 1376.67 1304.21 1373.75 1304.07L1360.25 1304.07C1357.29 1304.18 1354.46 1305.35 1352.29 1307.37L1343.85 1315.93C1342.91 1316.7 1341.76 1317.17 1340.54 1317.28L1330.62 1317.28C1323.17 1317.28 1317.12 1323.31 1317.12 1330.76L1317.12 1363.78C1317.12 1371.23 1323.17 1377.26 1330.62 1377.26L1403.38 1377.26C1410.83 1377.26 1416.88 1371.23 1416.88 1363.78L1416.88 1330.49C1416.88 1323.04 1410.83 1317.01 1403.38 1317.01L1393.46 1317.28M1383.54 1347C1383.54 1356.12 1376.13 1363.51 1367 1363.51 1357.87 1363.51 1350.46 1356.12 1350.46 1347 1350.46 1337.88 1357.87 1330.49 1367 1330.49 1376.13 1330.49 1383.54 1337.88 1383.54 1347M1303.69 1322.8C1313.91 1296.79 1339.02 1279.66 1367 1279.6 1381.6 1279.6 1395.81 1284.33 1407.5 1293.08 1407.87 1293.38 1408.09 1293.82 1408.1 1294.29 1408.15 1294.77 1407.98 1295.24 1407.63 1295.57L1397.98 1305.08C1397.06 1306.03 1396.8 1307.44 1397.31 1308.65 1397.83 1309.87 1399.02 1310.67 1400.34 1310.67L1429.84 1310.67C1431.66 1310.67 1433.14 1309.19 1433.14 1307.37L1433.14 1277.98C1433.07 1276.74 1432.31 1275.65 1431.17 1275.15 1430.03 1274.65 1428.71 1274.84 1427.74 1275.62L1419.58 1283.51C1418.94 1284.07 1417.99 1284.07 1417.35 1283.51 1403.05 1272.14 1385.28 1266 1367 1266.12 1333.48 1266.25 1303.45 1286.87 1291.34 1318.09 1290 1321.53 1291.69 1325.41 1295.12 1326.78 1298.59 1328.01 1302.4 1326.24 1303.69 1322.8M1438.88 1367.22C1435.45 1365.98 1431.66 1367.68 1430.31 1371.06 1420.13 1397.12 1395.02 1414.32 1367 1414.4 1352.4 1414.4 1338.19 1409.67 1326.5 1400.92 1326.13 1400.62 1325.91 1400.18 1325.9 1399.71 1325.96 1399.3 1326.18 1398.94 1326.5 1398.69L1336.29 1388.92C1337.21 1387.97 1337.47 1386.56 1336.96 1385.35 1336.44 1384.13 1335.25 1383.33 1333.93 1383.33L1304.16 1383.33C1302.34 1383.33 1300.86 1384.81 1300.86 1386.63L1300.86 1416.02C1300.84 1417.37 1301.64 1418.59 1302.89 1419.11 1304.14 1419.63 1305.58 1419.34 1306.53 1418.38L1314.42 1410.49C1315.06 1409.93 1316.01 1409.93 1316.65 1410.49 1330.95 1421.86 1348.72 1428 1367 1427.88 1400.52 1427.75 1430.55 1407.13 1442.66 1375.91 1444 1372.47 1442.31 1368.59 1438.88 1367.22" fill="#DE8431" fill-rule="evenodd"/><path d="M1113.88 1306.33 972.125 1306.33C966.533 1306.33 962 1310.88 962 1316.5L962 1397.83C962 1403.45 966.533 1408 972.125 1408L1113.88 1408C1119.47 1408 1124 1403.45 1124 1397.83L1124 1316.5C1124 1310.88 1119.47 1306.33 1113.88 1306.33M1107.13 1357.17C1107.13 1375.88 1092.02 1391.06 1073.38 1391.06 1054.73 1391.06 1039.62 1375.88 1039.62 1357.17 1039.62 1338.45 1054.73 1323.28 1073.38 1323.28 1092.02 1323.28 1107.13 1338.45 1107.13 1357.17M1016 1348.69 978.875 1348.69C976.081 1348.69 973.812 1346.42 973.812 1343.61 973.812 1340.8 976.081 1338.53 978.875 1338.53L1016 1338.53C1018.79 1338.53 1021.06 1340.8 1021.06 1343.61 1021.06 1346.42 1018.79 1348.69 1016 1348.69M1021.06 1370.72C1021.03 1373.51 1018.78 1375.77 1016 1375.81L978.875 1375.81C976.081 1375.81 973.812 1373.53 973.812 1370.72 973.812 1367.92 976.081 1365.64 978.875 1365.64L1016 1365.64C1018.78 1365.68 1021.03 1367.93 1021.06 1370.72M982.25 1299.56 1009.25 1299.56C1011.11 1299.56 1012.63 1298.04 1012.63 1296.17 1012.63 1290.55 1008.09 1286 1002.5 1286L989 1286C983.408 1286 978.875 1290.55 978.875 1296.17 978.875 1298.04 980.387 1299.56 982.25 1299.56M1062.17 1338.73C1055.02 1338.73 1055.02 1345.92 1055.02 1345.92L1055.02 1368.49C1055.02 1375.67 1062.17 1375.67 1062.17 1375.67L1084.65 1375.67C1091.8 1375.67 1091.8 1368.49 1091.8 1368.49L1091.8 1345.92C1091.8 1338.73 1084.65 1338.73 1084.65 1338.73L1062.17 1338.73" fill="#E0CB15" fill-rule="evenodd"/><text fill="#484848" font-family="Calibri,Calibri_MSFontService,sans-serif" font-weight="400" font-size="46" transform="matrix(1 0 0 1 1898.35 872)">Capture la</text><text fill="#484848" font-family="Calibri,Calibri_MSFontService,sans-serif" font-weight="400" font-size="46" transform="matrix(1 0 0 1 1804.4 927)">géométrie complète</text><text fill="#484848" font-family="Calibri,Calibri_MSFontService,sans-serif" font-weight="400" font-size="46" transform="matrix(1 0 0 1 1841.06 982)">dans les espaces</text><text fill="#484848" font-family="Calibri,Calibri_MSFontService,sans-serif" font-weight="400" font-size="46" transform="matrix(1 0 0 1 1915.82 1037)">confinés</text><text fill="#484848" font-family="Calibri,Calibri_MSFontService,sans-serif" font-weight="400" font-size="46" transform="matrix(1 0 0 1 1274.94 923)">Capture des</text><text fill="#484848" font-family="Calibri,Calibri_MSFontService,sans-serif" font-weight="400" font-size="46" transform="matrix(1 0 0 1 1247.71 978)">textures et des</text><text fill="#484848" font-family="Calibri,Calibri_MSFontService,sans-serif" font-weight="400" font-size="46" transform="matrix(1 0 0 1 1214.48 1033)">détails surfaciques</text><text fill="#4E88E7" font-family="Calibri,Calibri_MSFontService,sans-serif" font-weight="700" font-size="64" transform="matrix(1 0 0 1 1888.78 770)">Scan 3D</text><text fill="#DE8431" font-family="Calibri,Calibri_MSFontService,sans-serif" font-weight="700" font-size="64" transform="matrix(1 0 0 1 1207.21 810)">Photographie</text><text fill="#E0CB15" font-family="Calibri,Calibri_MSFontService,sans-serif" font-weight="700" font-size="64" transform="matrix(1 0 0 1 985.818 1701)">Vidéo</text><text fill="#E55753" font-family="Calibri,Calibri_MSFontService,sans-serif" font-weight="700" font-size="64" transform="matrix(1 0 0 1 1514.91 1701)">Plans 2D</text><text fill="#3CC583" font-family="Calibri,Calibri_MSFontService,sans-serif" font-weight="700" font-size="64" transform="matrix(1 0 0 1 2097.82 1701)">Modèles 3D</text><text fill="#3CC583" font-family="Calibri,Calibri_MSFontService,sans-serif" font-weight="700" font-size="64" transform="matrix(1 0 0 1 2199.38 1778)">CAO</text><text fill="#484848" font-family="Calibri,Calibri_MSFontService,sans-serif" font-weight="400" font-size="46" transform="matrix(1 0 0 1 951.185 1803)">Capture des</text><text fill="#484848" font-family="Calibri,Calibri_MSFontService,sans-serif" font-weight="400" font-size="46" transform="matrix(1 0 0 1 940.575 1858)">mouvements</text><text fill="#484848" font-family="Calibri,Calibri_MSFontService,sans-serif" font-weight="400" font-size="46" transform="matrix(1 0 0 1 952.331 1913)">fluides pour</text><text fill="#484848" font-family="Calibri,Calibri_MSFontService,sans-serif" font-weight="400" font-size="46" transform="matrix(1 0 0 1 958.633 1968)">l'animation</text><text fill="#484848" font-family="Calibri,Calibri_MSFontService,sans-serif" font-weight="400" font-size="46" transform="matrix(1 0 0 1 1524.65 1813)">Fournit des</text><text fill="#484848" font-family="Calibri,Calibri_MSFontService,sans-serif" font-weight="400" font-size="46" transform="matrix(1 0 0 1 1448.45 1868)">dimensions exactes</text><text fill="#484848" font-family="Calibri,Calibri_MSFontService,sans-serif" font-weight="400" font-size="46" transform="matrix(1 0 0 1 1481.68 1923)">et des cotations</text><text fill="#484848" font-family="Calibri,Calibri_MSFontService,sans-serif" font-weight="400" font-size="46" transform="matrix(1 0 0 1 2148.82 1884)">Fournit une</text><text fill="#484848" font-family="Calibri,Calibri_MSFontService,sans-serif" font-weight="400" font-size="46" transform="matrix(1 0 0 1 2160.55 1939)">géométrie</text><text fill="#484848" font-family="Calibri,Calibri_MSFontService,sans-serif" font-weight="400" font-size="46" transform="matrix(1 0 0 1 2104.98 1994)">complexe et des</text><text fill="#484848" font-family="Calibri,Calibri_MSFontService,sans-serif" font-weight="400" font-size="46" transform="matrix(1 0 0 1 2139.35 2049)">assemblages</text></g></svg>